<svg width="16" height="14" viewBox="0 0 16 14" fill="none" xmlns="http://www.w3.org/2000/svg">
<path fill-rule="evenodd" clip-rule="evenodd" d="M0.5 0.5H15.5V13.5H0.5V0.5ZM5.5 12.5H7.5V8.5H5.5V12.5ZM8.5 12.5H10.5V8.5H8.5V12.5ZM11.5 12.5V7.5H4.5V12.5H1.5V5.81399C2.47082 6.1853 3.5679 6.1085 4.48649 5.5836L4.5 5.57588L4.51351 5.5836C5.58953 6.19846 6.91047 6.19846 7.98649 5.5836L8 5.57588L8.01351 5.5836C9.08953 6.19846 10.4105 6.19846 11.4865 5.5836L11.5 5.57588L11.5135 5.5836C12.4321 6.1085 13.5292 6.1853 14.5 5.81399V12.5H11.5ZM14.5 1.5V4.70984L14.4903 4.71535C13.7218 5.15454 12.7782 5.15454 12.0097 4.71535L11.5 4.42412L10.9903 4.71535C10.2218 5.15454 9.27823 5.15454 8.50965 4.71535L8 4.42412L7.49035 4.71535C6.72177 5.15454 5.77823 5.15454 5.00965 4.71535L4.5 4.42412L3.99035 4.71535C3.22177 5.15454 2.27823 5.15454 1.50965 4.71535L1.5 4.70984V1.5H14.5Z" fill="white"/>
</svg>
