<svg width="14" height="10" viewBox="0 0 14 10" fill="none" xmlns="http://www.w3.org/2000/svg">
<path d="M5.66634 6.99967L9.12634 4.99967L5.66634 2.99967V6.99967ZM13.373 1.77967C13.4597 2.09301 13.5197 2.51301 13.5597 3.04634C13.6063 3.57967 13.6263 4.03967 13.6263 4.43967L13.6663 4.99967C13.6663 6.45967 13.5597 7.53301 13.373 8.21967C13.2063 8.81967 12.8197 9.20634 12.2197 9.37301C11.9063 9.45967 11.333 9.51967 10.453 9.55967C9.58634 9.60634 8.79301 9.62634 8.05967 9.62634L6.99967 9.66634C4.20634 9.66634 2.46634 9.55967 1.77967 9.37301C1.17967 9.20634 0.793008 8.81967 0.626341 8.21967C0.539675 7.90634 0.479675 7.48634 0.439675 6.95301C0.393008 6.41967 0.373008 5.95967 0.373008 5.55967L0.333008 4.99967C0.333008 3.53967 0.439675 2.46634 0.626341 1.77967C0.793008 1.17967 1.17967 0.793008 1.77967 0.626341C2.09301 0.539675 2.66634 0.479674 3.54634 0.439674C4.41301 0.393008 5.20634 0.373008 5.93967 0.373008L6.99967 0.333008C9.79301 0.333008 11.533 0.439675 12.2197 0.626341C12.8197 0.793008 13.2063 1.17967 13.373 1.77967Z" fill="#30171B"/>
</svg>
